<?xml version="1.0" encoding="UTF-8"?>
<svg version="1.1" xmlns="http://www.w3.org/2000/svg" width="406" height="404">
<path d="M0 0 C133.98 0 267.96 0 406 0 C406 133.32 406 266.64 406 404 C272.02 404 138.04 404 0 404 C0 270.68 0 137.36 0 0 Z " fill="#FBFBFB" transform="translate(0,0)"/>
<path d="M0 0 C7.92 0 15.84 0 24 0 C24 3.63 24 7.26 24 11 C31.59 11 39.18 11 47 11 C47 14.96 47 18.92 47 23 C43.04 23 39.08 23 35 23 C35 26.96 35 30.92 35 35 C31.37 35 27.74 35 24 35 C24 38.63 24 42.26 24 46 C35.22 46 46.44 46 58 46 C58 49.96 58 53.92 58 58 C54.37 58 50.74 58 47 58 C47 61.63 47 65.26 47 69 C50.96 69 54.92 69 59 69 C59 65.37 59 61.74 59 58 C66.59 58 74.18 58 82 58 C82 54.04 82 50.08 82 46 C85.63 46 89.26 46 93 46 C93 53.92 93 61.84 93 70 C100.59 70 108.18 70 116 70 C116 73.63 116 77.26 116 81 C108.41 81 100.82 81 93 81 C93 88.59 93 96.18 93 104 C89.37 104 85.74 104 82 104 C82 100.37 82 96.74 82 93 C78.04 93 74.08 93 70 93 C70 96.63 70 100.26 70 104 C62.41 104 54.82 104 47 104 C47 107.96 47 111.92 47 116 C54.59 116 62.18 116 70 116 C70 123.59 70 131.18 70 139 C73.96 139 77.92 139 82 139 C82 131.41 82 123.82 82 116 C89.59 116 97.18 116 105 116 C105 112.04 105 108.08 105 104 C108.63 104 112.26 104 116 104 C116 107.96 116 111.92 116 116 C127.88 116 139.76 116 152 116 C152 112.04 152 108.08 152 104 C155.63 104 159.26 104 163 104 C163 111.92 163 119.84 163 128 C159.04 128 155.08 128 151 128 C151 131.63 151 135.26 151 139 C147.37 139 143.74 139 140 139 C140 135.37 140 131.74 140 128 C124.49 128 108.98 128 93 128 C93 135.59 93 143.18 93 151 C100.59 151 108.18 151 116 151 C116 154.63 116 158.26 116 162 C108.41 162 100.82 162 93 162 C93 169.92 93 177.84 93 186 C96.96 186 100.92 186 105 186 C105 189.96 105 193.92 105 198 C97.41 198 89.82 198 82 198 C82 201.63 82 205.26 82 209 C78.04 209 74.08 209 70 209 C70 201.41 70 193.82 70 186 C73.96 186 77.92 186 82 186 C82 178.08 82 170.16 82 162 C78.04 162 74.08 162 70 162 C70 158.37 70 154.74 70 151 C58.45 151 46.9 151 35 151 C35 147.04 35 143.08 35 139 C31.04 139 27.08 139 23 139 C23 135.37 23 131.74 23 128 C19.37 128 15.74 128 12 128 C12 135.59 12 143.18 12 151 C0.45 151 -11.1 151 -23 151 C-23 135.49 -23 119.98 -23 104 C-15.41 104 -7.82 104 0 104 C0 107.96 0 111.92 0 116 C3.96 116 7.92 116 12 116 C12 112.37 12 108.74 12 105 C15.96 105 19.92 105 24 105 C24 101.04 24 97.08 24 93 C27.63 93 31.26 93 35 93 C35 85.41 35 77.82 35 70 C27.41 70 19.82 70 12 70 C12 73.63 12 77.26 12 81 C8.04 81 4.08 81 0 81 C0 84.96 0 88.92 0 93 C-3.63 93 -7.26 93 -11 93 C-11 89.04 -11 85.08 -11 81 C-14.96 81 -18.92 81 -23 81 C-23 77.04 -23 73.08 -23 69 C-15.41 69 -7.82 69 0 69 C0 57.45 0 45.9 0 34 C7.59 34 15.18 34 23 34 C23 26.74 23 19.48 23 12 C15.74 12 8.48 12 1 12 C1 15.63 1 19.26 1 23 C-2.96 23 -6.92 23 -11 23 C-11 34.55 -11 46.1 -11 58 C-14.96 58 -18.92 58 -23 58 C-23 42.49 -23 26.98 -23 11 C-15.41 11 -7.82 11 0 11 C0 7.37 0 3.74 0 0 Z " fill="#040404" transform="translate(33,150)"/>
<path d="M0 0 C11.55 0 23.1 0 35 0 C35 3.96 35 7.92 35 12 C31.04 12 27.08 12 23 12 C23 15.96 23 19.92 23 24 C19.37 24 15.74 24 12 24 C12 27.63 12 31.26 12 35 C15.63 35 19.26 35 23 35 C23 38.96 23 42.92 23 47 C30.92 47 38.84 47 47 47 C47 43.04 47 39.08 47 35 C50.63 35 54.26 35 58 35 C58 42.92 58 50.84 58 59 C50.41 59 42.82 59 35 59 C35 62.63 35 66.26 35 70 C42.92 70 50.84 70 59 70 C59 73.96 59 77.92 59 82 C47.45 82 35.9 82 24 82 C24 85.63 24 89.26 24 93 C23 94 23 94 20.26023865 94.12025452 C19.03668167 94.11803391 17.81312469 94.11581329 16.55249023 94.11352539 C15.54277664 94.11374443 15.54277664 94.11374443 14.51266479 94.1139679 C12.27794216 94.11326878 10.0433019 94.10547652 7.80859375 94.09765625 C6.26302638 94.09579206 4.71745843 94.09436816 3.17189026 94.09336853 C-0.90357077 94.0895434 -4.97899637 94.07971317 -9.05444336 94.06866455 C-13.21011882 94.05845032 -17.36579999 94.05387089 -21.52148438 94.04882812 C-29.68100587 94.03809089 -37.84049853 94.02101454 -46 94 C-46 97.63 -46 101.26 -46 105 C-34.45 105 -22.9 105 -11 105 C-11 108.96 -11 112.92 -11 117 C-22.55 117 -34.1 117 -46 117 C-46 120.63 -46 124.26 -46 128 C-30.82 128 -15.64 128 0 128 C0 131.96 0 135.92 0 140 C-15.51 140 -31.02 140 -47 140 C-47 136.04 -47 132.08 -47 128 C-50.63 128 -54.26 128 -58 128 C-58 124.37 -58 120.74 -58 117 C-61.96 117 -65.92 117 -70 117 C-70 124.59 -70 132.18 -70 140 C-77.59 140 -85.18 140 -93 140 C-93 136.04 -93 132.08 -93 128 C-89.04 128 -85.08 128 -81 128 C-81 124.37 -81 120.74 -81 117 C-88.92 117 -96.84 117 -105 117 C-105 105.45 -105 93.9 -105 82 C-101.04 82 -97.08 82 -93 82 C-93 74.41 -93 66.82 -93 59 C-96.63 59 -100.26 59 -104 59 C-104 62.63 -104 66.26 -104 70 C-107.96 70 -111.92 70 -116 70 C-116 66.37 -116 62.74 -116 59 C-119.96 59 -123.92 59 -128 59 C-128 62.63 -128 66.26 -128 70 C-131.96 70 -135.92 70 -140 70 C-140 66.37 -140 62.74 -140 59 C-143.63 59 -147.26 59 -151 59 C-151 62.63 -151 66.26 -151 70 C-154.96 70 -158.92 70 -163 70 C-163 66.04 -163 62.08 -163 58 C-159.04 58 -155.08 58 -151 58 C-151 54.37 -151 50.74 -151 47 C-143.41 47 -135.82 47 -128 47 C-128 43.04 -128 39.08 -128 35 C-124.04 35 -120.08 35 -116 35 C-116 38.96 -116 42.92 -116 47 C-108.41 47 -100.82 47 -93 47 C-93 50.63 -93 54.26 -93 58 C-81.45 58 -69.9 58 -58 58 C-58 61.96 -58 65.92 -58 70 C-61.96 70 -65.92 70 -70 70 C-70 81.55 -70 93.1 -70 105 C-66.04 105 -62.08 105 -58 105 C-58 97.41 -58 89.82 -58 82 C-54.04 82 -50.08 82 -46 82 C-46 74.08 -46 66.16 -46 58 C-42.37 58 -38.74 58 -35 58 C-35 50.41 -35 42.82 -35 35 C-31.04 35 -27.08 35 -23 35 C-23 27.41 -23 19.82 -23 12 C-15.41 12 -7.82 12 0 12 C0 8.04 0 4.08 0 0 Z " fill="#060606" transform="translate(324,254)"/>
<path d="M0 0 C7.59 0 15.18 0 23 0 C23 3.63 23 7.26 23 11 C26.96 11 30.92 11 35 11 C35 7.37 35 3.74 35 0 C54.14 0 73.28 0 93 0 C93 3.63 93 7.26 93 11 C85.41 11 77.82 11 70 11 C70 14.96 70 18.92 70 23 C66.04 23 62.08 23 58 23 C58 26.96 58 30.92 58 35 C54.37 35 50.74 35 47 35 C47 38.63 47 42.26 47 46 C50.63 46 54.26 46 58 46 C58 49.96 58 53.92 58 58 C54.37 58 50.74 58 47 58 C47 65.59 47 73.18 47 81 C39.08 81 31.16 81 23 81 C23 84.96 23 88.92 23 93 C15.41 93 7.82 93 0 93 C0 96.63 0 100.26 0 104 C-3.96 104 -7.92 104 -12 104 C-12 107.96 -12 111.92 -12 116 C-8.04 116 -4.08 116 0 116 C0 112.37 0 108.74 0 105 C3.63 105 7.26 105 11 105 C11 108.63 11 112.26 11 116 C14.96 116 18.92 116 23 116 C23 112.37 23 108.74 23 105 C26.96 105 30.92 105 35 105 C35 112.59 35 120.18 35 128 C31.04 128 27.08 128 23 128 C23 143.18 23 158.36 23 174 C30.92 174 38.84 174 47 174 C47 177.96 47 181.92 47 186 C31.49 186 15.98 186 0 186 C0 182.04 0 178.08 0 174 C-3.96 174 -7.92 174 -12 174 C-12 177.96 -12 181.92 -12 186 C-15.96 186 -19.92 186 -24 186 C-24 182.37 -24 178.74 -24 175 C-31.26 175 -38.52 175 -46 175 C-46 178.63 -46 182.26 -46 186 C-53.92 186 -61.84 186 -70 186 C-70 178.41 -70 170.82 -70 163 C-62.41 163 -54.82 163 -47 163 C-47 159.04 -47 155.08 -47 151 C-39.41 151 -31.82 151 -24 151 C-24 143.41 -24 135.82 -24 128 C-31.59 128 -39.18 128 -47 128 C-47 120.08 -47 112.16 -47 104 C-39.41 104 -31.82 104 -24 104 C-24 100.37 -24 96.74 -24 93 C-31.59 93 -39.18 93 -47 93 C-47 85.41 -47 77.82 -47 70 C-31.49 70 -15.98 70 0 70 C0 73.63 0 77.26 0 81 C3.63 81 7.26 81 11 81 C11 77.37 11 73.74 11 70 C14.96 70 18.92 70 23 70 C23 54.49 23 38.98 23 23 C19.04 23 15.08 23 11 23 C11 19.37 11 15.74 11 12 C7.37 12 3.74 12 0 12 C0 19.59 0 27.18 0 35 C-3.96 35 -7.92 35 -12 35 C-12 27.08 -12 19.16 -12 11 C-8.04 11 -4.08 11 0 11 C0 7.37 0 3.74 0 0 Z " fill="#F1F1F1" transform="translate(173,208)"/>
<path d="M0 0 C26.73 0 53.46 0 81 0 C81 26.73 81 53.46 81 81 C54.27 81 27.54 81 0 81 C0 54.27 0 27.54 0 0 Z " fill="#FAFAFA" transform="translate(10,313)"/>
<path d="M0 0 C26.73 0 53.46 0 81 0 C81 26.73 81 53.46 81 81 C54.27 81 27.54 81 0 81 C0 54.27 0 27.54 0 0 Z " fill="#FAFAFA" transform="translate(313,10)"/>
<path d="M0 0 C26.73 0 53.46 0 81 0 C81 26.73 81 53.46 81 81 C54.27 81 27.54 81 0 81 C0 54.27 0 27.54 0 0 Z " fill="#FAFAFA" transform="translate(10,10)"/>
<path d="M0 0 C3.96 0 7.92 0 12 0 C12 3.63 12 7.26 12 11 C23.55 11 35.1 11 47 11 C47 18.59 47 26.18 47 34 C50.63 34 54.26 34 58 34 C58 30.37 58 26.74 58 23 C61.63 23 65.26 23 69 23 C69.495 28.445 69.495 28.445 70 34 C75.445 34.495 75.445 34.495 81 35 C81 31.04 81 27.08 81 23 C84.96 23 88.92 23 93 23 C93 30.59 93 38.18 93 46 C96.96 46 100.92 46 105 46 C105 49.96 105 53.92 105 58 C97.08 58 89.16 58 81 58 C81 69.55 81 81.1 81 93 C77.37 93 73.74 93 70 93 C70 89.04 70 85.08 70 81 C66.04 81 62.08 81 58 81 C58 77.04 58 73.08 58 69 C61.63 69 65.26 69 69 69 C69 65.37 69 61.74 69 58 C65.37 58 61.74 58 58 58 C58 54.04 58 50.08 58 46 C54.04 46 50.08 46 46 46 C46 49.96 46 53.92 46 58 C42.37 58 38.74 58 35 58 C35 61.63 35 65.26 35 69 C38.63 69 42.26 69 46 69 C46 72.96 46 76.92 46 81 C42.37 81 38.74 81 35 81 C35 92.55 35 104.1 35 116 C38.63 116 42.26 116 46 116 C46 123.59 46 131.18 46 139 C42.04 139 38.08 139 34 139 C34 131.41 34 123.82 34 116 C30.37 116 26.74 116 23 116 C23 108.41 23 100.82 23 93 C19.04 93 15.08 93 11 93 C11 100.59 11 108.18 11 116 C7.37 116 3.74 116 0 116 C0 108.41 0 100.82 0 93 C-3.96 93 -7.92 93 -12 93 C-12 89.04 -12 85.08 -12 81 C-4.41 81 3.18 81 11 81 C11 77.04 11 73.08 11 69 C7.37 69 3.74 69 0 69 C0 61.41 0 53.82 0 46 C3.63 46 7.26 46 11 46 C11 34.45 11 22.9 11 11 C7.37 11 3.74 11 0 11 C0 7.37 0 3.74 0 0 Z " fill="#070707" transform="translate(115,57)"/>
<path d="M0 0 C3.63 0 7.26 0 11 0 C11 7.59 11 15.18 11 23 C14.96 23 18.92 23 23 23 C23 26.96 23 30.92 23 35 C26.96 35 30.92 35 35 35 C35 38.63 35 42.26 35 46 C31.04 46 27.08 46 23 46 C23 53.92 23 61.84 23 70 C26.96 70 30.92 70 35 70 C35 62.41 35 54.82 35 47 C38.63 47 42.26 47 46 47 C46 50.63 46 54.26 46 58 C49.96 58 53.92 58 58 58 C58 65.59 58 73.18 58 81 C54.37 81 50.74 81 47 81 C47 84.96 47 88.92 47 93 C35.12 93 23.24 93 11 93 C11 89.04 11 85.08 11 81 C7.37 81 3.74 81 0 81 C0 84.96 0 88.92 0 93 C-7.59 93 -15.18 93 -23 93 C-23 100.59 -23 108.18 -23 116 C-26.96 116 -30.92 116 -35 116 C-35 108.41 -35 100.82 -35 93 C-42.59 93 -50.18 93 -58 93 C-58 89.04 -58 85.08 -58 81 C-50.41 81 -42.82 81 -35 81 C-35 77.37 -35 73.74 -35 70 C-31.04 70 -27.08 70 -23 70 C-23 73.63 -23 77.26 -23 81 C-19.37 81 -15.74 81 -12 81 C-12 73.41 -12 65.82 -12 58 C-4.08 58 3.84 58 12 58 C12 54.04 12 50.08 12 46 C4.41 46 -3.18 46 -11 46 C-11 38.74 -11 31.48 -11 24 C-7.37 24 -3.74 24 0 24 C0 16.08 0 8.16 0 0 Z " fill="#FCFCFC" transform="translate(138,173)"/>
<path d="M0 0 C19.47 0 38.94 0 59 0 C59 11.55 59 23.1 59 35 C62.63 35 66.26 35 70 35 C70 27.41 70 19.82 70 12 C73.96 12 77.92 12 82 12 C82 19.59 82 27.18 82 35 C89.59 35 97.18 35 105 35 C105 38.63 105 42.26 105 46 C108.96 46 112.92 46 117 46 C117 49.96 117 53.92 117 58 C120.63 58 124.26 58 128 58 C128 65.92 128 73.84 128 82 C124.37 82 120.74 82 117 82 C117 93.22 117 104.44 117 116 C113.04 116 109.08 116 105 116 C105 104.78 105 93.56 105 82 C101.04 82 97.08 82 93 82 C93 78.04 93 74.08 93 70 C89.37 70 85.74 70 82 70 C82 66.04 82 62.08 82 58 C85.96 58 89.92 58 94 58 C94 61.63 94 65.26 94 69 C97.63 69 101.26 69 105 69 C105 72.96 105 76.92 105 81 C108.63 81 112.26 81 116 81 C116 73.74 116 66.48 116 59 C112.37 59 108.74 59 105 59 C105 55.04 105 51.08 105 47 C103.61176025 47.00523682 102.22352051 47.01047363 100.79321289 47.01586914 C95.66268555 47.03391346 90.53216103 47.04542992 85.40161133 47.05493164 C83.17732268 47.05997317 80.95303737 47.06680623 78.72875977 47.07543945 C75.53921691 47.08751298 72.34971771 47.09322996 69.16015625 47.09765625 C67.65860741 47.10539818 67.65860741 47.10539818 66.12672424 47.11329651 C64.74540565 47.11340981 64.74540565 47.11340981 63.33618164 47.11352539 C62.52121719 47.115746 61.70625275 47.11796661 60.86659241 47.12025452 C59 47 59 47 58 46 C57.85689713 42.3308423 57.95778338 38.67284559 58 35 C54.37 35 50.74 35 47 35 C47 38.96 47 42.92 47 47 C43.04 47 39.08 47 35 47 C35 43.04 35 39.08 35 35 C23.45 35 11.9 35 0 35 C0 31.04 0 27.08 0 23 C-3.63 23 -7.26 23 -11 23 C-11 19.37 -11 15.74 -11 12 C-7.37 12 -3.74 12 0 12 C0 8.04 0 4.08 0 0 Z " fill="#060606" transform="translate(126,10)"/>
<path d="M0 0 C26.73 0 53.46 0 81 0 C81 26.73 81 53.46 81 81 C54.27 81 27.54 81 0 81 C0 54.27 0 27.54 0 0 Z M12 11 C12 30.14 12 49.28 12 69 C31.14 69 50.28 69 70 69 C70 49.86 70 30.72 70 11 C50.86 11 31.72 11 12 11 Z " fill="#020202" transform="translate(10,313)"/>
<path d="M0 0 C26.73 0 53.46 0 81 0 C81 26.73 81 53.46 81 81 C54.27 81 27.54 81 0 81 C0 54.27 0 27.54 0 0 Z M11 12 C11 31.14 11 50.28 11 70 C30.14 70 49.28 70 69 70 C69 50.86 69 31.72 69 12 C49.86 12 30.72 12 11 12 Z " fill="#020202" transform="translate(313,10)"/>
<path d="M0 0 C26.73 0 53.46 0 81 0 C81 26.73 81 53.46 81 81 C54.27 81 27.54 81 0 81 C0 54.27 0 27.54 0 0 Z M12 12 C12 31.14 12 50.28 12 70 C31.14 70 50.28 70 70 70 C70 50.86 70 31.72 70 12 C50.86 12 31.72 12 12 12 Z " fill="#020202" transform="translate(10,10)"/>
<path d="M0 0 C7.59 0 15.18 0 23 0 C23 3.63 23 7.26 23 11 C26.96 11 30.92 11 35 11 C35 7.37 35 3.74 35 0 C54.14 0 73.28 0 93 0 C93 3.63 93 7.26 93 11 C85.41 11 77.82 11 70 11 C70 14.96 70 18.92 70 23 C66.04 23 62.08 23 58 23 C58 26.96 58 30.92 58 35 C54.37 35 50.74 35 47 35 C47 38.63 47 42.26 47 46 C50.63 46 54.26 46 58 46 C58 49.96 58 53.92 58 58 C54.37 58 50.74 58 47 58 C47 65.59 47 73.18 47 81 C43.04 81 39.08 81 35 81 C35 73.41 35 65.82 35 58 C38.63 58 42.26 58 46 58 C46 54.04 46 50.08 46 46 C38.41 46 30.82 46 23 46 C23 38.41 23 30.82 23 23 C19.04 23 15.08 23 11 23 C11 19.37 11 15.74 11 12 C7.37 12 3.74 12 0 12 C0 19.59 0 27.18 0 35 C-3.96 35 -7.92 35 -12 35 C-12 27.08 -12 19.16 -12 11 C-8.04 11 -4.08 11 0 11 C0 7.37 0 3.74 0 0 Z " fill="#0B0B0B" transform="translate(173,208)"/>
<path d="M0 0 C7.59 0 15.18 0 23 0 C23 3.96 23 7.92 23 12 C19.37 12 15.74 12 12 12 C12 19.59 12 27.18 12 35 C8.04 35 4.08 35 0 35 C0 38.96 0 42.92 0 47 C-7.59 47 -15.18 47 -23 47 C-23 50.63 -23 54.26 -23 58 C-26.96 58 -30.92 58 -35 58 C-35 61.96 -35 65.92 -35 70 C-42.59 70 -50.18 70 -58 70 C-58 73.96 -58 77.92 -58 82 C-61.96 82 -65.92 82 -70 82 C-70 74.08 -70 66.16 -70 58 C-62.41 58 -54.82 58 -47 58 C-47 54.37 -47 50.74 -47 47 C-54.59 47 -62.18 47 -70 47 C-70 39.41 -70 31.82 -70 24 C-54.49 24 -38.98 24 -23 24 C-23 27.63 -23 31.26 -23 35 C-19.37 35 -15.74 35 -12 35 C-12 31.37 -12 27.74 -12 24 C-8.04 24 -4.08 24 0 24 C0 16.08 0 8.16 0 0 Z " fill="#F8F8F8" transform="translate(196,254)"/>
<path d="M0 0 C11.55 0 23.1 0 35 0 C35 3.96 35 7.92 35 12 C42.59 12 50.18 12 58 12 C58 15.96 58 19.92 58 24 C54.04 24 50.08 24 46 24 C46 35.55 46 47.1 46 59 C42.37 59 38.74 59 35 59 C35 51.08 35 43.16 35 35 C31.04 35 27.08 35 23 35 C23 38.96 23 42.92 23 47 C19.37 47 15.74 47 12 47 C12 50.96 12 54.92 12 59 C8.04 59 4.08 59 0 59 C0 51.41 0 43.82 0 36 C3.96 36 7.92 36 12 36 C12 32.04 12 28.08 12 24 C8.04 24 4.08 24 0 24 C0 27.63 0 31.26 0 35 C-3.96 35 -7.92 35 -12 35 C-12 27.41 -12 19.82 -12 12 C-8.04 12 -4.08 12 0 12 C0 8.04 0 4.08 0 0 Z " fill="#050505" transform="translate(301,184)"/>
<path d="M0 0 C3.96 0 7.92 0 12 0 C12 3.96 12 7.92 12 12 C15.63 12 19.26 12 23 12 C23 15.63 23 19.26 23 23 C26.96 23 30.92 23 35 23 C35 26.96 35 30.92 35 35 C27.41 35 19.82 35 12 35 C12 38.96 12 42.92 12 47 C8.04 47 4.08 47 0 47 C0 54.59 0 62.18 0 70 C-3.96 70 -7.92 70 -12 70 C-12 73.63 -12 77.26 -12 81 C-15.63 81 -19.26 81 -23 81 C-23 73.41 -23 65.82 -23 58 C-19.37 58 -15.74 58 -12 58 C-12 54.37 -12 50.74 -12 47 C-15.63 47 -19.26 47 -23 47 C-23 43.04 -23 39.08 -23 35 C-26.96 35 -30.92 35 -35 35 C-35 31.04 -35 27.08 -35 23 C-27.08 23 -19.16 23 -11 23 C-11 19.37 -11 15.74 -11 12 C-7.37 12 -3.74 12 0 12 C0 8.04 0 4.08 0 0 Z " fill="#070707" transform="translate(289,103)"/>
<path d="M0 0 C3.96 0 7.92 0 12 0 C12 7.59 12 15.18 12 23 C19.59 23 27.18 23 35 23 C35 26.63 35 30.26 35 34 C38.96 34 42.92 34 47 34 C47 37.96 47 41.92 47 46 C50.63 46 54.26 46 58 46 C58 53.92 58 61.84 58 70 C54.37 70 50.74 70 47 70 C47 81.22 47 92.44 47 104 C43.04 104 39.08 104 35 104 C35 92.78 35 81.56 35 70 C31.04 70 27.08 70 23 70 C23 66.04 23 62.08 23 58 C19.37 58 15.74 58 12 58 C12 54.04 12 50.08 12 46 C15.96 46 19.92 46 24 46 C24 49.63 24 53.26 24 57 C27.63 57 31.26 57 35 57 C35 60.96 35 64.92 35 69 C38.63 69 42.26 69 46 69 C46 61.74 46 54.48 46 47 C42.37 47 38.74 47 35 47 C35 43.04 35 39.08 35 35 C19.82 35 4.64 35 -11 35 C-11 31.04 -11 27.08 -11 23 C-7.37 23 -3.74 23 0 23 C0 15.41 0 7.82 0 0 Z " fill="#8B8B8B" transform="translate(196,22)"/>
<path d="M0 0 C3.63 0 7.26 0 11 0 C11 3.63 11 7.26 11 11 C14.96 11 18.92 11 23 11 C23 7.37 23 3.74 23 0 C26.96 0 30.92 0 35 0 C35 3.63 35 7.26 35 11 C42.59 11 50.18 11 58 11 C58 14.96 58 18.92 58 23 C65.59 23 73.18 23 81 23 C81 30.59 81 38.18 81 46 C77.37 46 73.74 46 70 46 C70 42.04 70 38.08 70 34 C62.41 34 54.82 34 47 34 C47 30.37 47 26.74 47 23 C39.08 23 31.16 23 23 23 C23 26.63 23 30.26 23 34 C26.96 34 30.92 34 35 34 C35 37.96 35 41.92 35 46 C31.04 46 27.08 46 23 46 C23 42.37 23 38.74 23 35 C19.37 35 15.74 35 12 35 C12 31.04 12 27.08 12 23 C8.04 23 4.08 23 0 23 C0 15.41 0 7.82 0 0 Z " fill="#020202" transform="translate(173,150)"/>
<path d="M0 0 C7.92 0 15.84 0 24 0 C24 3.63 24 7.26 24 11 C31.59 11 39.18 11 47 11 C47 14.96 47 18.92 47 23 C43.04 23 39.08 23 35 23 C35 26.96 35 30.92 35 35 C31.37 35 27.74 35 24 35 C24 42.59 24 50.18 24 58 C20.04 58 16.08 58 12 58 C12 54.04 12 50.08 12 46 C15.63 46 19.26 46 23 46 C23 42.37 23 38.74 23 35 C15.74 35 8.48 35 1 35 C1 46.55 1 58.1 1 70 C-6.92 70 -14.84 70 -23 70 C-23 69.67 -23 69.34 -23 69 C-15.41 69 -7.82 69 0 69 C0 57.45 0 45.9 0 34 C7.59 34 15.18 34 23 34 C23 26.74 23 19.48 23 12 C15.74 12 8.48 12 1 12 C1 15.63 1 19.26 1 23 C-2.96 23 -6.92 23 -11 23 C-11 34.55 -11 46.1 -11 58 C-14.96 58 -18.92 58 -23 58 C-23 42.49 -23 26.98 -23 11 C-15.41 11 -7.82 11 0 11 C0 7.37 0 3.74 0 0 Z " fill="#868686" transform="translate(33,150)"/>
<path d="M0 0 C7.59 0 15.18 0 23 0 C23 3.96 23 7.92 23 12 C34.88 12 46.76 12 59 12 C59 8.04 59 4.08 59 0 C62.63 0 66.26 0 70 0 C70 7.59 70 15.18 70 23 C58.45 23 46.9 23 35 23 C35 26.96 35 30.92 35 35 C27.41 35 19.82 35 12 35 C12 31.04 12 27.08 12 23 C8.04 23 4.08 23 0 23 C0 15.41 0 7.82 0 0 Z " fill="#000000" transform="translate(324,359)"/>
<path d="M0 0 C3.96 0 7.92 0 12 0 C12 3.96 12 7.92 12 12 C15.96 12 19.92 12 24 12 C24 15.63 24 19.26 24 23 C31.59 23 39.18 23 47 23 C47 26.96 47 30.92 47 35 C39.08 35 31.16 35 23 35 C23 31.04 23 27.08 23 23 C19.37 23 15.74 23 12 23 C12 30.92 12 38.84 12 47 C8.04 47 4.08 47 0 47 C0 39.41 0 31.82 0 24 C-11.55 24 -23.1 24 -35 24 C-35 19.71 -35 15.42 -35 11 C-23.45 11 -11.9 11 0 11 C0 7.37 0 3.74 0 0 Z " fill="#8D8D8D" transform="translate(254,10)"/>
<path d="M0 0 C3.63 0 7.26 0 11 0 C11 3.63 11 7.26 11 11 C14.96 11 18.92 11 23 11 C23 18.59 23 26.18 23 34 C19.37 34 15.74 34 12 34 C12 37.96 12 41.92 12 46 C0.12 46 -11.76 46 -24 46 C-24 38.41 -24 30.82 -24 23 C-16.08 23 -8.16 23 0 23 C0 15.41 0 7.82 0 0 Z " fill="#F0F0F0" transform="translate(173,220)"/>
<path d="M0 0 C7.59 0 15.18 0 23 0 C23 3.96 23 7.92 23 12 C26.96 12 30.92 12 35 12 C35 15.63 35 19.26 35 23 C38.96 23 42.92 23 47 23 C47 19.37 47 15.74 47 12 C50.63 12 54.26 12 58 12 C58 19.59 58 27.18 58 35 C42.49 35 26.98 35 11 35 C11 31.04 11 27.08 11 23 C7.37 23 3.74 23 0 23 C0 15.41 0 7.82 0 0 Z " fill="#060606" transform="translate(45,103)"/>
<path d="M0 0 C3.63 0 7.26 0 11 0 C11 15.18 11 30.36 11 46 C18.92 46 26.84 46 35 46 C35 49.96 35 53.92 35 58 C19.49 58 3.98 58 -12 58 C-12 54.04 -12 50.08 -12 46 C-15.96 46 -19.92 46 -24 46 C-24 42.37 -24 38.74 -24 35 C-16.08 35 -8.16 35 0 35 C0 23.45 0 11.9 0 0 Z " fill="#020202" transform="translate(185,336)"/>
<path d="M0 0 C3.96 0 7.92 0 12 0 C12 3.96 12 7.92 12 12 C19.59 12 27.18 12 35 12 C35 15.63 35 19.26 35 23 C46.55 23 58.1 23 70 23 C70 23.33 70 23.66 70 24 C54.82 24 39.64 24 24 24 C24 27.63 24 31.26 24 35 C20.04 35 16.08 35 12 35 C12 31.37 12 27.74 12 24 C8.04 24 4.08 24 0 24 C0 27.63 0 31.26 0 35 C-3.96 35 -7.92 35 -12 35 C-12 31.37 -12 27.74 -12 24 C-15.63 24 -19.26 24 -23 24 C-23 27.63 -23 31.26 -23 35 C-26.96 35 -30.92 35 -35 35 C-35 31.04 -35 27.08 -35 23 C-31.04 23 -27.08 23 -23 23 C-23 19.37 -23 15.74 -23 12 C-15.41 12 -7.82 12 0 12 C0 8.04 0 4.08 0 0 Z " fill="#0D0D0D" transform="translate(196,289)"/>
<path d="M0 0 C3.96 0 7.92 0 12 0 C12 19.47 12 38.94 12 59 C0.45 59 -11.1 59 -23 59 C-23 55.04 -23 51.08 -23 47 C-15.41 47 -7.82 47 0 47 C0 43.37 0 39.74 0 36 C-3.63 36 -7.26 36 -11 36 C-11 28.08 -11 20.16 -11 12 C-7.37 12 -3.74 12 0 12 C0 8.04 0 4.08 0 0 Z " fill="#060606" transform="translate(382,184)"/>
<path d="M0 0 C11.55 0 23.1 0 35 0 C35 11.55 35 23.1 35 35 C23.45 35 11.9 35 0 35 C0 23.45 0 11.9 0 0 Z " fill="#030303" transform="translate(33,336)"/>
<path d="M0 0 C11.55 0 23.1 0 35 0 C35 11.55 35 23.1 35 35 C23.45 35 11.9 35 0 35 C0 23.45 0 11.9 0 0 Z " fill="#F7F7F7" transform="translate(301,301)"/>
<path d="M0 0 C11.55 0 23.1 0 35 0 C35 11.55 35 23.1 35 35 C23.45 35 11.9 35 0 35 C0 23.45 0 11.9 0 0 Z " fill="#030303" transform="translate(336,33)"/>
<path d="M0 0 C11.55 0 23.1 0 35 0 C35 11.55 35 23.1 35 35 C23.45 35 11.9 35 0 35 C0 23.45 0 11.9 0 0 Z " fill="#030303" transform="translate(33,33)"/>
<path d="M0 0 C7.59 0 15.18 0 23 0 C23 7.59 23 15.18 23 23 C15.41 23 7.82 23 0 23 C0 26.96 0 30.92 0 35 C-7.59 35 -15.18 35 -23 35 C-23 27.41 -23 19.82 -23 12 C-15.41 12 -7.82 12 0 12 C0 8.04 0 4.08 0 0 Z " fill="#010101" transform="translate(126,359)"/>
<path d="M0 0 C7.59 0 15.18 0 23 0 C23 7.59 23 15.18 23 23 C19.37 23 15.74 23 12 23 C12 26.96 12 30.92 12 35 C8.04 35 4.08 35 0 35 C0 38.63 0 42.26 0 46 C-3.96 46 -7.92 46 -12 46 C-12 42.04 -12 38.08 -12 34 C-8.04 34 -4.08 34 0 34 C0 30.37 0 26.74 0 23 C-3.96 23 -7.92 23 -12 23 C-12 19.04 -12 15.08 -12 11 C-8.04 11 -4.08 11 0 11 C0 7.37 0 3.74 0 0 Z " fill="#F6F6F6" transform="translate(45,220)"/>
<path d="M0 0 C7.59 0 15.18 0 23 0 C23 3.96 23 7.92 23 12 C26.96 12 30.92 12 35 12 C35 19.59 35 27.18 35 35 C27.41 35 19.82 35 12 35 C12 27.41 12 19.82 12 12 C8.04 12 4.08 12 0 12 C0 8.04 0 4.08 0 0 Z " fill="#030303" transform="translate(138,324)"/>
<path d="M0 0 C3.96 0 7.92 0 12 0 C12 7.59 12 15.18 12 23 C19.59 23 27.18 23 35 23 C35 26.63 35 30.26 35 34 C19.82 34 4.64 34 -11 34 C-11 30.37 -11 26.74 -11 23 C-7.37 23 -3.74 23 0 23 C0 15.41 0 7.82 0 0 Z " fill="#020202" transform="translate(196,22)"/>
<path d="M0 0 C7.59 0 15.18 0 23 0 C23 3.96 23 7.92 23 12 C19.37 12 15.74 12 12 12 C12 23.55 12 35.1 12 47 C8.04 47 4.08 47 0 47 C0 31.49 0 15.98 0 0 Z " fill="#070707" transform="translate(10,161)"/>
<path d="M0 0 C3.96 0 7.92 0 12 0 C12 3.96 12 7.92 12 12 C8.37 12 4.74 12 1 12 C1 15.63 1 19.26 1 23 C4.63 23 8.26 23 12 23 C12 26.96 12 30.92 12 35 C4.41 35 -3.18 35 -11 35 C-11 31.04 -11 27.08 -11 23 C-14.96 23 -18.92 23 -23 23 C-23 19.37 -23 15.74 -23 12 C-15.41 12 -7.82 12 0 12 C0 8.04 0 4.08 0 0 Z " fill="#000000" transform="translate(382,103)"/>
<path d="M0 0 C15.51 0 31.02 0 47 0 C47 3.96 47 7.92 47 12 C31.49 12 15.98 12 0 12 C0 8.04 0 4.08 0 0 Z " fill="#070707" transform="translate(324,138)"/>
<path d="M0 0 C3.63 0 7.26 0 11 0 C11 3.63 11 7.26 11 11 C14.96 11 18.92 11 23 11 C23 18.59 23 26.18 23 34 C19.37 34 15.74 34 12 34 C12 30.37 12 26.74 12 23 C8.04 23 4.08 23 0 23 C0 15.41 0 7.82 0 0 Z " fill="#FDFDFD" transform="translate(173,220)"/>
<path d="M0 0 C3.96 0 7.92 0 12 0 C12 3.96 12 7.92 12 12 C15.63 12 19.26 12 23 12 C23 15.63 23 19.26 23 23 C11.78 23 0.56 23 -11 23 C-11 19.37 -11 15.74 -11 12 C-7.37 12 -3.74 12 0 12 C0 8.04 0 4.08 0 0 Z " fill="#FCFCFC" transform="translate(68,173)"/>
<path d="M0 0 C7.59 0 15.18 0 23 0 C23 3.63 23 7.26 23 11 C19.04 11 15.08 11 11 11 C11 18.92 11 26.84 11 35 C7.37 35 3.74 35 0 35 C0 23.45 0 11.9 0 0 Z " fill="#010101" transform="translate(278,243)"/>
<path d="M0 0 C15.18 0 30.36 0 46 0 C46 3.63 46 7.26 46 11 C30.82 11 15.64 11 0 11 C0 7.37 0 3.74 0 0 Z " fill="#000000" transform="translate(278,383)"/>
<path d="M0 0 C3.63 0 7.26 0 11 0 C11 7.59 11 15.18 11 23 C7.04 23 3.08 23 -1 23 C-1 26.63 -1 30.26 -1 34 C-4.63 34 -8.26 34 -12 34 C-12 26.74 -12 19.48 -12 12 C-8.04 12 -4.08 12 0 12 C0 8.04 0 4.08 0 0 Z " fill="#000000" transform="translate(278,150)"/>
<path d="M0 0 C3.96 0 7.92 0 12 0 C12 3.63 12 7.26 12 11 C19.59 11 27.18 11 35 11 C35 14.96 35 18.92 35 23 C27.08 23 19.16 23 11 23 C11 19.04 11 15.08 11 11 C7.37 11 3.74 11 0 11 C0 7.37 0 3.74 0 0 Z " fill="#0F0F0F" transform="translate(266,22)"/>
<path d="M0 0 C3.63 0 7.26 0 11 0 C11 3.96 11 7.92 11 12 C14.96 12 18.92 12 23 12 C23 15.96 23 19.92 23 24 C15.41 24 7.82 24 0 24 C0 16.08 0 8.16 0 0 Z " fill="#050505" transform="translate(371,254)"/>
<path d="M0 0 C3.96 0 7.92 0 12 0 C12 11.22 12 22.44 12 34 C8.04 34 4.08 34 0 34 C0 22.78 0 11.56 0 0 Z " fill="#070707" transform="translate(231,92)"/>
<path d="M0 0 C7.59 0 15.18 0 23 0 C23 3.96 23 7.92 23 12 C19.04 12 15.08 12 11 12 C11 15.63 11 19.26 11 23 C7.37 23 3.74 23 0 23 C0 15.41 0 7.82 0 0 Z " fill="#050505" transform="translate(57,161)"/>
<path d="M0 0 C7.59 0 15.18 0 23 0 C23 3.96 23 7.92 23 12 C19.04 12 15.08 12 11 12 C11 15.63 11 19.26 11 23 C7.37 23 3.74 23 0 23 C0 15.41 0 7.82 0 0 Z " fill="#010101" transform="translate(45,103)"/>
<path d="M0 0 C3.63 0 7.26 0 11 0 C11 7.26 11 14.52 11 22 C3.41 22 -4.18 22 -12 22 C-12 18.37 -12 14.74 -12 11 C-8.04 11 -4.08 11 0 11 C0 7.37 0 3.74 0 0 Z " fill="#FDFDFD" transform="translate(290,220)"/>
<path d="M0 0 C11.22 0 22.44 0 34 0 C34 3.63 34 7.26 34 11 C22.78 11 11.56 11 0 11 C0 7.37 0 3.74 0 0 Z " fill="#000000" transform="translate(220,22)"/>
<path d="M0 0 C3.96 0 7.92 0 12 0 C12 7.59 12 15.18 12 23 C8.04 23 4.08 23 0 23 C0 15.41 0 7.82 0 0 Z " fill="#111111" transform="translate(196,313)"/>
<path d="M0 0 C7.59 0 15.18 0 23 0 C23 3.96 23 7.92 23 12 C15.41 12 7.82 12 0 12 C0 8.04 0 4.08 0 0 Z " fill="#050505" transform="translate(208,138)"/>
<path d="M0 0 C3.96 0 7.92 0 12 0 C12 7.59 12 15.18 12 23 C8.04 23 4.08 23 0 23 C0 15.41 0 7.82 0 0 Z " fill="#0C0C0C" transform="translate(289,103)"/>
<path d="M0 0 C7.59 0 15.18 0 23 0 C23 3.96 23 7.92 23 12 C15.41 12 7.82 12 0 12 C0 8.04 0 4.08 0 0 Z " fill="#050505" transform="translate(10,103)"/>
<path d="M0 0 C3.96 0 7.92 0 12 0 C12 7.59 12 15.18 12 23 C8.04 23 4.08 23 0 23 C0 15.41 0 7.82 0 0 Z " fill="#070707" transform="translate(103,80)"/>
<path d="M0 0 C7.59 0 15.18 0 23 0 C23 3.63 23 7.26 23 11 C15.41 11 7.82 11 0 11 C0 7.37 0 3.74 0 0 Z " fill="#FDFDFD" transform="translate(68,278)"/>
<path d="M0 0 C3.63 0 7.26 0 11 0 C11 7.59 11 15.18 11 23 C7.37 23 3.74 23 0 23 C0 15.41 0 7.82 0 0 Z " fill="#000000" transform="translate(208,266)"/>
<path d="M0 0 C3.63 0 7.26 0 11 0 C11 7.59 11 15.18 11 23 C7.37 23 3.74 23 0 23 C0 15.41 0 7.82 0 0 Z " fill="#FFFFFF" transform="translate(22,266)"/>
<path d="M0 0 C3.63 0 7.26 0 11 0 C11 7.59 11 15.18 11 23 C7.37 23 3.74 23 0 23 C0 15.41 0 7.82 0 0 Z " fill="#000000" transform="translate(150,173)"/>
<path d="M0 0 C3.63 0 7.26 0 11 0 C11 7.59 11 15.18 11 23 C7.37 23 3.74 23 0 23 C0 15.41 0 7.82 0 0 Z " fill="#000000" transform="translate(127,173)"/>
<path d="M0 0 C7.59 0 15.18 0 23 0 C23 3.63 23 7.26 23 11 C15.41 11 7.82 11 0 11 C0 7.37 0 3.74 0 0 Z " fill="#000000" transform="translate(371,150)"/>
<path d="M0 0 C7.59 0 15.18 0 23 0 C23 3.63 23 7.26 23 11 C15.41 11 7.82 11 0 11 C0 7.37 0 3.74 0 0 Z " fill="#FFFFFF" transform="translate(208,150)"/>
<path d="M0 0 C3.63 0 7.26 0 11 0 C11 7.59 11 15.18 11 23 C7.37 23 3.74 23 0 23 C0 15.41 0 7.82 0 0 Z " fill="#FFFFFF" transform="translate(127,150)"/>
<path d="M0 0 C7.59 0 15.18 0 23 0 C23 3.63 23 7.26 23 11 C15.41 11 7.82 11 0 11 C0 7.37 0 3.74 0 0 Z " fill="#030303" transform="translate(33,150)"/>
<path d="M0 0 C7.59 0 15.18 0 23 0 C23 3.63 23 7.26 23 11 C15.41 11 7.82 11 0 11 C0 7.37 0 3.74 0 0 Z " fill="#020202" transform="translate(324,115)"/>
<path d="M0 0 C3.63 0 7.26 0 11 0 C11 7.59 11 15.18 11 23 C7.37 23 3.74 23 0 23 C0 15.41 0 7.82 0 0 Z " fill="#020202" transform="translate(243,68)"/>
<path d="M0 0 C7.59 0 15.18 0 23 0 C23 3.63 23 7.26 23 11 C15.41 11 7.82 11 0 11 C0 7.37 0 3.74 0 0 Z " fill="#FFFFFF" transform="translate(138,22)"/>
<path d="M0 0 C3.63 0 7.26 0 11 0 C11 7.26 11 14.52 11 22 C7.37 22 3.74 22 0 22 C0 14.74 0 7.48 0 0 Z " fill="#020202" transform="translate(162,220)"/>
<path d="M0 0 C3.63 0 7.26 0 11 0 C11 7.26 11 14.52 11 22 C7.37 22 3.74 22 0 22 C0 14.74 0 7.48 0 0 Z " fill="#000000" transform="translate(255,34)"/>
<path d="M0 0 C3.96 0 7.92 0 12 0 C12 3.96 12 7.92 12 12 C8.37 12 4.74 12 1 12 C1 15.63 1 19.26 1 23 C4.63 23 8.26 23 12 23 C12 23.33 12 23.66 12 24 C8.04 24 4.08 24 0 24 C0 16.08 0 8.16 0 0 Z " fill="#1A1A1A" transform="translate(382,103)"/>
<path d="M0 0 C7.59 0 15.18 0 23 0 C23 3.96 23 7.92 23 12 C19.04 12 15.08 12 11 12 C11 8.37 11 4.74 11 1 C7.37 1 3.74 1 0 1 C0 0.67 0 0.34 0 0 Z " fill="#191919" transform="translate(185,184)"/>
<path d="M0 0 C3.96 0 7.92 0 12 0 C12 3.96 12 7.92 12 12 C8.04 12 4.08 12 0 12 C0 8.04 0 4.08 0 0 Z " fill="#111111" transform="translate(359,347)"/>
<path d="M0 0 C3.96 0 7.92 0 12 0 C12 3.96 12 7.92 12 12 C8.04 12 4.08 12 0 12 C0 8.04 0 4.08 0 0 Z " fill="#ECECEC" transform="translate(231,336)"/>
<path d="M0 0 C3.96 0 7.92 0 12 0 C12 3.96 12 7.92 12 12 C8.04 12 4.08 12 0 12 C0 8.04 0 4.08 0 0 Z " fill="#EDEDED" transform="translate(103,219)"/>
<path d="M0 0 C3.96 0 7.92 0 12 0 C12 3.96 12 7.92 12 12 C8.04 12 4.08 12 0 12 C0 8.04 0 4.08 0 0 Z " fill="#111111" transform="translate(161,196)"/>
<path d="M0 0 C3.96 0 7.92 0 12 0 C12 3.96 12 7.92 12 12 C8.04 12 4.08 12 0 12 C0 8.04 0 4.08 0 0 Z " fill="#0C0C0C" transform="translate(324,161)"/>
<path d="M0 0 C3.96 0 7.92 0 12 0 C12 3.96 12 7.92 12 12 C8.04 12 4.08 12 0 12 C0 8.04 0 4.08 0 0 Z " fill="#0C0C0C" transform="translate(10,138)"/>
<path d="M0 0 C3.96 0 7.92 0 12 0 C12 3.96 12 7.92 12 12 C8.04 12 4.08 12 0 12 C0 8.04 0 4.08 0 0 Z " fill="#0C0C0C" transform="translate(33,126)"/>
<path d="M0 0 C3.96 0 7.92 0 12 0 C12 3.96 12 7.92 12 12 C8.04 12 4.08 12 0 12 C0 8.04 0 4.08 0 0 Z " fill="#111111" transform="translate(289,80)"/>
<path d="M0 0 C3.96 0 7.92 0 12 0 C12 3.96 12 7.92 12 12 C8.04 12 4.08 12 0 12 C0 8.04 0 4.08 0 0 Z " fill="#ECECEC" transform="translate(138,80)"/>
<path d="M0 0 C3.96 0 7.92 0 12 0 C12 3.96 12 7.92 12 12 C8.04 12 4.08 12 0 12 C0 8.04 0 4.08 0 0 Z " fill="#0C0C0C" transform="translate(103,10)"/>
<path d="M0 0 C3.63 0 7.26 0 11 0 C11 3.96 11 7.92 11 12 C7.37 12 3.74 12 0 12 C0 8.04 0 4.08 0 0 Z " fill="#050505" transform="translate(150,382)"/>
<path d="M0 0 C3.96 0 7.92 0 12 0 C12 3.63 12 7.26 12 11 C8.04 11 4.08 11 0 11 C0 7.37 0 3.74 0 0 Z " fill="#F7F7F7" transform="translate(196,313)"/>
<path d="M0 0 C3.63 0 7.26 0 11 0 C11 3.96 11 7.92 11 12 C7.37 12 3.74 12 0 12 C0 8.04 0 4.08 0 0 Z " fill="#050505" transform="translate(243,289)"/>
<path d="M0 0 C3.63 0 7.26 0 11 0 C11 3.96 11 7.92 11 12 C7.37 12 3.74 12 0 12 C0 8.04 0 4.08 0 0 Z " fill="#050505" transform="translate(150,289)"/>
<path d="M0 0 C3.96 0 7.92 0 12 0 C12 3.63 12 7.26 12 11 C8.04 11 4.08 11 0 11 C0 7.37 0 3.74 0 0 Z " fill="#070707" transform="translate(359,278)"/>
<path d="M0 0 C3.63 0 7.26 0 11 0 C11 3.96 11 7.92 11 12 C7.37 12 3.74 12 0 12 C0 8.04 0 4.08 0 0 Z " fill="#050505" transform="translate(243,266)"/>
<path d="M0 0 C3.63 0 7.26 0 11 0 C11 3.96 11 7.92 11 12 C7.37 12 3.74 12 0 12 C0 8.04 0 4.08 0 0 Z " fill="#F9F9F9" transform="translate(57,266)"/>
<path d="M0 0 C3.63 0 7.26 0 11 0 C11 3.96 11 7.92 11 12 C7.37 12 3.74 12 0 12 C0 8.04 0 4.08 0 0 Z " fill="#050505" transform="translate(220,254)"/>
<path d="M0 0 C3.96 0 7.92 0 12 0 C12 3.63 12 7.26 12 11 C8.04 11 4.08 11 0 11 C0 7.37 0 3.74 0 0 Z " fill="#F7F7F7" transform="translate(68,243)"/>
<path d="M0 0 C3.96 0 7.92 0 12 0 C12 3.63 12 7.26 12 11 C8.04 11 4.08 11 0 11 C0 7.37 0 3.74 0 0 Z " fill="#070707" transform="translate(33,243)"/>
<path d="M0 0 C3.63 0 7.26 0 11 0 C11 3.96 11 7.92 11 12 C7.37 12 3.74 12 0 12 C0 8.04 0 4.08 0 0 Z " fill="#050505" transform="translate(266,231)"/>
<path d="M0 0 C3.63 0 7.26 0 11 0 C11 3.96 11 7.92 11 12 C7.37 12 3.74 12 0 12 C0 8.04 0 4.08 0 0 Z " fill="#F9F9F9" transform="translate(208,231)"/>
<path d="M0 0 C3.63 0 7.26 0 11 0 C11 3.96 11 7.92 11 12 C7.37 12 3.74 12 0 12 C0 8.04 0 4.08 0 0 Z " fill="#F9F9F9" transform="translate(80,231)"/>
<path d="M0 0 C3.96 0 7.92 0 12 0 C12 3.63 12 7.26 12 11 C8.04 11 4.08 11 0 11 C0 7.37 0 3.74 0 0 Z " fill="#070707" transform="translate(231,150)"/>
<path d="M0 0 C3.63 0 7.26 0 11 0 C11 3.96 11 7.92 11 12 C7.37 12 3.74 12 0 12 C0 8.04 0 4.08 0 0 Z " fill="#F9F9F9" transform="translate(278,138)"/>
<path d="M0 0 C3.63 0 7.26 0 11 0 C11 3.96 11 7.92 11 12 C7.37 12 3.74 12 0 12 C0 8.04 0 4.08 0 0 Z " fill="#050505" transform="translate(243,138)"/>
<path d="M0 0 C3.96 0 7.92 0 12 0 C12 3.63 12 7.26 12 11 C8.04 11 4.08 11 0 11 C0 7.37 0 3.74 0 0 Z " fill="#F7F7F7" transform="translate(289,115)"/>
<path d="M0 0 C3.63 0 7.26 0 11 0 C11 3.96 11 7.92 11 12 C7.37 12 3.74 12 0 12 C0 8.04 0 4.08 0 0 Z " fill="#050505" transform="translate(313,103)"/>
<path d="M0 0 C3.63 0 7.26 0 11 0 C11 3.96 11 7.92 11 12 C7.37 12 3.74 12 0 12 C0 8.04 0 4.08 0 0 Z " fill="#050505" transform="translate(80,103)"/>
<path d="M0 0 C3.63 0 7.26 0 11 0 C11 3.96 11 7.92 11 12 C7.37 12 3.74 12 0 12 C0 8.04 0 4.08 0 0 Z " fill="#0A0A0A" transform="translate(278,68)"/>
<path d="M0 0 C3.63 0 7.26 0 11 0 C11 3.96 11 7.92 11 12 C7.37 12 3.74 12 0 12 C0 8.04 0 4.08 0 0 Z " fill="#0A0A0A" transform="translate(208,68)"/>
<path d="M0 0 C3.63 0 7.26 0 11 0 C11 3.63 11 7.26 11 11 C7.37 11 3.74 11 0 11 C0 7.37 0 3.74 0 0 Z " fill="#000000" transform="translate(313,313)"/>
<path d="M0 0 C3.63 0 7.26 0 11 0 C11 3.63 11 7.26 11 11 C7.37 11 3.74 11 0 11 C0 7.37 0 3.74 0 0 Z " fill="#020202" transform="translate(162,313)"/>
<path d="M0 0 C3.63 0 7.26 0 11 0 C11 3.63 11 7.26 11 11 C7.37 11 3.74 11 0 11 C0 7.37 0 3.74 0 0 Z " fill="#FFFFFF" transform="translate(313,278)"/>
<path d="M0 0 C3.63 0 7.26 0 11 0 C11 3.63 11 7.26 11 11 C7.37 11 3.74 11 0 11 C0 7.37 0 3.74 0 0 Z " fill="#FCFCFC" transform="translate(34,255)"/>
<path d="M0 0 C3.63 0 7.26 0 11 0 C11 3.63 11 7.26 11 11 C7.37 11 3.74 11 0 11 C0 7.37 0 3.74 0 0 Z " fill="#000000" transform="translate(243,243)"/>
<path d="M0 0 C3.63 0 7.26 0 11 0 C11 3.63 11 7.26 11 11 C7.37 11 3.74 11 0 11 C0 7.37 0 3.74 0 0 Z " fill="#000000" transform="translate(173,243)"/>
<path d="M0 0 C3.63 0 7.26 0 11 0 C11 3.63 11 7.26 11 11 C7.37 11 3.74 11 0 11 C0 7.37 0 3.74 0 0 Z " fill="#000000" transform="translate(150,243)"/>
<path d="M0 0 C3.63 0 7.26 0 11 0 C11 3.63 11 7.26 11 11 C7.37 11 3.74 11 0 11 C0 7.37 0 3.74 0 0 Z " fill="#000000" transform="translate(220,231)"/>
<path d="M0 0 C3.63 0 7.26 0 11 0 C11 3.63 11 7.26 11 11 C7.37 11 3.74 11 0 11 C0 7.37 0 3.74 0 0 Z " fill="#000000" transform="translate(278,220)"/>
<path d="M0 0 C3.63 0 7.26 0 11 0 C11 3.63 11 7.26 11 11 C7.37 11 3.74 11 0 11 C0 7.37 0 3.74 0 0 Z " fill="#FFFFFF" transform="translate(220,220)"/>
<path d="M0 0 C3.63 0 7.26 0 11 0 C11 3.63 11 7.26 11 11 C7.37 11 3.74 11 0 11 C0 7.37 0 3.74 0 0 Z " fill="#FFFFFF" transform="translate(301,208)"/>
<path d="M0 0 C3.63 0 7.26 0 11 0 C11 3.63 11 7.26 11 11 C7.37 11 3.74 11 0 11 C0 7.37 0 3.74 0 0 Z " fill="#FFFFFF" transform="translate(80,208)"/>
<path d="M0 0 C3.63 0 7.26 0 11 0 C11 3.63 11 7.26 11 11 C7.37 11 3.74 11 0 11 C0 7.37 0 3.74 0 0 Z " fill="#020202" transform="translate(359,185)"/>
<path d="M0 0 C3.63 0 7.26 0 11 0 C11 3.63 11 7.26 11 11 C7.37 11 3.74 11 0 11 C0 7.37 0 3.74 0 0 Z " fill="#000000" transform="translate(278,185)"/>
<path d="M0 0 C3.63 0 7.26 0 11 0 C11 3.63 11 7.26 11 11 C7.37 11 3.74 11 0 11 C0 7.37 0 3.74 0 0 Z " fill="#000000" transform="translate(92,185)"/>
<path d="M0 0 C3.63 0 7.26 0 11 0 C11 3.63 11 7.26 11 11 C7.37 11 3.74 11 0 11 C0 7.37 0 3.74 0 0 Z " fill="#000000" transform="translate(80,173)"/>
<path d="M0 0 C3.63 0 7.26 0 11 0 C11 3.63 11 7.26 11 11 C7.37 11 3.74 11 0 11 C0 7.37 0 3.74 0 0 Z " fill="#000000" transform="translate(313,150)"/>
<path d="M0 0 C3.63 0 7.26 0 11 0 C11 3.63 11 7.26 11 11 C7.37 11 3.74 11 0 11 C0 7.37 0 3.74 0 0 Z " fill="#000000" transform="translate(80,150)"/>
<path d="M0 0 C3.63 0 7.26 0 11 0 C11 3.63 11 7.26 11 11 C7.37 11 3.74 11 0 11 C0 7.37 0 3.74 0 0 Z " fill="#FFFFFF" transform="translate(127,115)"/>
<path d="M0 0 C3.63 0 7.26 0 11 0 C11 3.63 11 7.26 11 11 C7.37 11 3.74 11 0 11 C0 7.37 0 3.74 0 0 Z " fill="#FFFFFF" transform="translate(57,115)"/>
<path d="M0 0 C3.63 0 7.26 0 11 0 C11 3.63 11 7.26 11 11 C7.37 11 3.74 11 0 11 C0 7.37 0 3.74 0 0 Z " fill="#000000" transform="translate(266,80)"/>
<path d="M0 0 C3.63 0 7.26 0 11 0 C11 3.63 11 7.26 11 11 C7.37 11 3.74 11 0 11 C0 7.37 0 3.74 0 0 Z " fill="#000000" transform="translate(220,80)"/>
<path d="M0 0 C3.63 0 7.26 0 11 0 C11 3.63 11 7.26 11 11 C7.37 11 3.74 11 0 11 C0 7.37 0 3.74 0 0 Z " fill="#020202" transform="translate(231,57)"/>
<path d="M0 0 C3.63 0 7.26 0 11 0 C11 3.63 11 7.26 11 11 C7.37 11 3.74 11 0 11 C0 7.37 0 3.74 0 0 Z " fill="#000000" transform="translate(115,57)"/>
<path d="M0 0 C3.63 0 7.26 0 11 0 C11 3.63 11 7.26 11 11 C7.37 11 3.74 11 0 11 C0 7.37 0 3.74 0 0 Z " fill="#000000" transform="translate(266,22)"/>
<path d="M0 0 C3.63 0 7.26 0 11 0 C11 3.63 11 7.26 11 11 C7.37 11 3.74 11 0 11 C0 7.37 0 3.74 0 0 Z " fill="#FFFFFF" transform="translate(255,22)"/>
<path d="M0 0 C3.63 0 7.26 0 11 0 C11 3.63 11 7.26 11 11 C7.37 11 3.74 11 0 11 C0 7.37 0 3.74 0 0 Z " fill="#000000" transform="translate(255,10)"/>
<path d="M0 0 C0.33 0 0.66 0 1 0 C1 3.63 1 7.26 1 11 C4.63 11 8.26 11 12 11 C12 11.33 12 11.66 12 12 C8.37 12 4.74 12 1 12 C1 15.63 1 19.26 1 23 C4.63 23 8.26 23 12 23 C12 23.33 12 23.66 12 24 C8.37 24 4.74 24 1 24 C1 27.3 1 30.6 1 34 C8.26 34 15.52 34 23 34 C23 30.37 23 26.74 23 23 C23.33 23 23.66 23 24 23 C24 26.96 24 30.92 24 35 C16.41 35 8.82 35 1 35 C1 38.63 1 42.26 1 46 C0.67 46 0.34 46 0 46 C0 34.78 0 23.56 0 12 C-3.63 12 -7.26 12 -11 12 C-11 11.67 -11 11.34 -11 11 C-7.37 11 -3.74 11 0 11 C0 7.37 0 3.74 0 0 Z " fill="#979797" transform="translate(91,173)"/>
<path d="M0 0 C3.63 0 7.26 0 11 0 C11 3.3 11 6.6 11 10 C7.37 10 3.74 10 0 10 C0 6.7 0 3.4 0 0 Z " fill="#FFFFFF" transform="translate(45,197)"/>
<path d="M0 0 C0.33 0 0.66 0 1 0 C1 3.63 1 7.26 1 11 C4.63 11 8.26 11 12 11 C12 11.33 12 11.66 12 12 C8.37 12 4.74 12 1 12 C1 15.63 1 19.26 1 23 C0.67 23 0.34 23 0 23 C0 19.37 0 15.74 0 12 C-3.63 12 -7.26 12 -11 12 C-11 11.67 -11 11.34 -11 11 C-7.37 11 -3.74 11 0 11 C0 7.37 0 3.74 0 0 Z " fill="#7F7F7F" transform="translate(277,173)"/>
</svg>
